<svg width="20" height="20" viewBox="0 0 20 20" fill="none" xmlns="http://www.w3.org/2000/svg">
<path d="M10 1.66663C9.11595 1.66663 8.26811 2.01782 7.64299 2.64294C7.01787 3.26806 6.66668 4.1159 6.66668 4.99996C6.66668 5.88401 7.01787 6.73186 7.64299 7.35698C8.26811 7.9821 9.11595 8.33329 10 8.33329C10.8841 8.33329 11.7319 7.9821 12.357 7.35698C12.9822 6.73186 13.3333 5.88401 13.3333 4.99996C13.3333 4.1159 12.9822 3.26806 12.357 2.64294C11.7319 2.01782 10.8841 1.66663 10 1.66663ZM8.33334 4.99996C8.33334 4.55793 8.50894 4.13401 8.8215 3.82145C9.13406 3.50889 9.55798 3.33329 10 3.33329C10.442 3.33329 10.866 3.50889 11.1785 3.82145C11.4911 4.13401 11.6667 4.55793 11.6667 4.99996C11.6667 5.44199 11.4911 5.86591 11.1785 6.17847C10.866 6.49103 10.442 6.66663 10 6.66663C9.55798 6.66663 9.13406 6.49103 8.8215 6.17847C8.50894 5.86591 8.33334 5.44199 8.33334 4.99996ZM14.1667 9.99996H5.83334C5.1703 9.99996 4.53442 10.2634 4.06558 10.7322C3.59674 11.201 3.33334 11.8369 3.33334 12.5C3.33334 14.36 4.09834 15.85 5.35334 16.8583C6.58834 17.85 8.24501 18.3333 10 18.3333C11.755 18.3333 13.4117 17.85 14.6467 16.8583C15.9 15.85 16.6667 14.36 16.6667 12.5C16.6667 11.8369 16.4033 11.201 15.9344 10.7322C15.4656 10.2634 14.8297 9.99996 14.1667 9.99996ZM5.83334 11.6666H14.1667C14.3877 11.6666 14.5997 11.7544 14.7559 11.9107C14.9122 12.067 15 12.2789 15 12.5C15 13.8616 14.4583 14.8716 13.6033 15.5583C12.7267 16.2616 11.4667 16.6666 10 16.6666C8.53334 16.6666 7.27334 16.2616 6.39668 15.5583C5.54168 14.8716 5.00001 13.8616 5.00001 12.5C5.00001 12.2789 5.08781 12.067 5.24409 11.9107C5.40037 11.7544 5.61233 11.6666 5.83334 11.6666Z" fill="white"/>
</svg>
